# xmcd
#
# Track frame offsets: 
#        150
#        14003
#        28093
#        41410
#        55002
#        70010
#        82740
#        95465
#        110068
#        122225
#        134900
#        149218
#        165022
#        177760
#        190850
#        203692
#        216193
#        228647
#        242005
#        255205
#        267785
#
# Disc length: 3749 seconds
#
# Revision: 0
# Processed by: cddbd v1.4PL0 Copyright (c) Steve Scherf et al.
# Submitted via: ExactAudioCopy v0.90b4
#
DISCID=270ea315
DTITLE=John Lee "Sonny Boy" Williamson - Good Morning Schoolgirl
DYEAR=1900
DGENRE=
TTITLE0=Good Morning Schoolgirl
TTITLE1=Bluebird Blues
TTITLE2=Sugar Mama Blues
TTITLE3=Skinny Woman
TTITLE4=Collector Man Blues
TTITLE5=Early In The Morning
TTITLE6=Black Gal Blues
TTITLE7=Susie - Q
TTITLE8=Bad Luck Blues
TTITLE9=Good Gravy
TTITLE10=Honey Bee Blues
TTITLE11=Decoration Blues
TTITLE12=Train Fare Blues
TTITLE13=Jivin' The Blues
TTITLE14=Welfare Store Blues
TTITLE15=My Black Name Blues
TTITLE16=Check Up On My Baby Blues
TTITLE17=Stop Breaking Down
TTITLE18=Hoodoo Hoodoo
TTITLE19=Shake The Boogie
TTITLE20=Better Cut That Out
EXTD=
EXTT0=
EXTT1=
EXTT2=
EXTT3=
EXTT4=
EXTT5=
EXTT6=
EXTT7=
EXTT8=
EXTT9=
EXTT10=
EXTT11=
EXTT12=
EXTT13=
EXTT14=
EXTT15=
EXTT16=
EXTT17=
EXTT18=
EXTT19=
EXTT20=
PLAYORDER=
